# xmcd CD database file
#
# Track frame offsets:
#	150
#	9247
#	19893
#	47770
#	60529
#	73928
#	94134
#	106279
#
# Disc length: 1693 seconds
#
# Revision: 0
# Processed by: cddbd v1.5.2PL0 Copyright (c) Steve Scherf et al.
# Submitted via: CDex 1.51
#
DISCID=63069b08
DTITLE=Gary Moore - Divers itunes 17 12 2007
DYEAR=2007
DGENRE=Blues
TTITLE0=Key to love (After hours)
TTITLE1=Looking back (Back to the blues)
TTITLE2=How many lies (Back to the blues)
TTITLE3=If the devil made whisky (Close as you can get)
TTITLE4=Walking by myself (Parisienne walkways)
TTITLE5=That kind of woman (Parisienne walkways)
TTITLE6=Moving on (Still got the blues)
TTITLE7=King of the blues (Still got the blues)
EXTD=YEAR: 2007
EXTT0=
EXTT1=
EXTT2=
EXTT3=
EXTT4=
EXTT5=
EXTT6=
EXTT7=
PLAYORDER=
